{"title":"Retreat 2011 DVDrip English Klam","uid":6937476,"size":1192531207,"categoryP":"video","categoryS":"movies","magnet":"?xt=urn:btih:a866a381470e211737bc0332daf5b1caf5458ce7&amp;dn=Retreat+2011+DVDrip+English+Klam&amp;tr=udp%3A%2F%2Ftracker.openbittorrent.com%3A80&amp;tr=udp%3A%2F%2Fopen.demonii.com%3A1337&amp;tr=udp%3A%2F%2Ftracker.coppersurfer.tk%3A6969&amp;tr=udp%3A%2F%2Fexodus.desync.com%3A6969","seeders":0,"leechers":1,"uploader":"Klambake","files":-1,"time":1325876741,"description":"Wth: Cillian Murphy, Thandie Newton and Jamie Bell\n\nIn een laatste poging om hun huwelijk te redden vestigen Martin en Kate Badenoch zich op het prachtige onbewoonde eiland Dinnish in het Verenigd Koninkrijk, een plek waar ze ooit een romantische vakantie doorgebracht hebben. Op een dag spoelt na een hevige storm een Amerikaanse soldaat aan op het strand, die een beschermend pak tegen biologische wapens draagt. Communicatie met het vasteland is niet meer mogelijk. De soldaat brengt het nieuws dat er een catastrofale ramp heeft plaatsgevonden en iedereen is gedood door een virus dat zich door de lucht verspreidt. Maar wie is deze soldaat?\n\nKate and Martin escape from personal tragedy to an Island Retreat. Cut off from the outside world, their attempts to recover are shattered when a Man is washed ashore, with news of airborne killer disease that is sweeping through Europe. \n\n------------------------ Dutch Friends ------------------------\n---------------------------------------------------------------\n- Bezoek ook eens mijn vrienden op: &lt;a href=&quot; http://www.Film-Test.nl&quot; rel=&quot;nofollow&quot; target=&quot;_NEW&quot;&gt; http://www.Film-Test.nl&lt;/a&gt; --\n----- voor mijn Nederlandse Sync. ondertitels ---- en meer ----\n------- http://www.Film-Test.nl ---- voor Films en meer -------\n---------------------------------------------------------------\n\nGeneral:\n\nComplete name                    : Retreat\\Retreat.avi\nFormat                           : AVI\nFormat/Info                      : Audio Video Interleave\nFile size                        : 1.11 GiB\nDuration                         : 1h 29mn\nOverall bit rate                 : 1 770 Kbps\n\nVideo:\n\nFormat                           : MPEG-4 Visual\nFormat profile                   : Simple@L3\nFormat settings, BVOP            : No\nFormat settings, QPel            : No\nFormat settings, GMC             : No warppoints\nFormat settings, Matrix          : Default (H.263)\nCodec ID                         : XVID\nCodec ID/Hint                    : XviD\nDuration                         : 1h 29mn\nBit rate                         : 1 311 Kbps\nWidth                            : 720 pixels\nHeight                           : 304 pixels\nDisplay aspect ratio             : 2.35:1\nFrame rate                       : 23.976 fps\nColor space                      : YUV\nChroma subsampling               : 4:2:0\nBit depth                        : 8 bits\nScan type                        : Progressive\nCompression mode                 : Lossy\nBits/(Pixel*Frame)               : 0.250\nStream size                      : 842 MiB (74%)\nWriting library                  : XviD 1.1.2 (UTC 2006-11-01)\n\nAudio:\n\nFormat                           : AC-3\nFormat/Info                      : Audio Coding 3\nMode extension                   : CM (complete main)\nCodec ID                         : 2000\nDuration                         : 1h 29mn\nBit rate mode                    : Constant\nBit rate                         : 448 Kbps\nChannel(s)                       : 6 channels\nChannel positions                : Front: L C R, Side: L R, LFE\nSampling rate                    : 48.0 KHz\nBit depth                        : 16 bits\nCompression mode                 : Lossy\nStream size                      : 288 MiB (25%)\nAlignment                        : Aligned on interleaves\nInterleave, duration             : 32 ms (0.77 video frame)\nInterleave, preload duration     : 320 ms\n\n","torrent":{"xt":"urn:btih:a866a381470e211737bc0332daf5b1caf5458ce7","amp;dn":"Retreat+2011+DVDrip+English+Klam","amp;tr":["udp%3A%2F%2Ftracker.openbittorrent.com%3A80","udp%3A%2F%2Fopen.demonii.com%3A1337","udp%3A%2F%2Ftracker.coppersurfer.tk%3A6969","udp%3A%2F%2Fexodus.desync.com%3A6969"],"infoHash":"a866a381470e211737bc0332daf5b1caf5458ce7","infoHashBuffer":{"type":"Buffer","data":[168,102,163,129,71,14,33,23,55,188,3,50,218,245,177,202,245,69,140,231]},"announce":[],"urlList":[]}}